<svg width="600" height="454" viewBox="0 0 600 454" fill="none" xmlns="http://www.w3.org/2000/svg">
<g clip-path="url(#clip0)">
<path d="M276.692 96.6416H128.679C127.953 96.6408 127.256 96.3517 126.742 95.8379C126.228 95.324 125.939 94.6273 125.938 93.9007V57.1851C125.939 56.4584 126.228 55.7617 126.742 55.2478C127.256 54.734 127.953 54.4449 128.679 54.4441H276.692C277.419 54.4449 278.115 54.734 278.629 55.2478C279.143 55.7617 279.432 56.4584 279.433 57.1851V93.9007C279.432 94.6273 279.143 95.324 278.629 95.8379C278.115 96.3517 277.419 96.6408 276.692 96.6416ZM128.679 55.5405C128.243 55.5409 127.825 55.7144 127.517 56.0227C127.209 56.331 127.035 56.749 127.035 57.185V93.9006C127.035 94.3367 127.209 94.7547 127.517 95.063C127.825 95.3713 128.243 95.5447 128.679 95.5452H276.692C277.128 95.5447 277.546 95.3713 277.854 95.063C278.163 94.7547 278.336 94.3367 278.337 93.9006V57.1851C278.336 56.749 278.163 56.331 277.854 56.0227C277.546 55.7144 277.128 55.541 276.692 55.5405L128.679 55.5405Z" fill="#3F3D56"/>
<path d="M151.678 85.2993C157.844 85.2993 162.843 80.3004 162.843 74.134C162.843 67.9676 157.844 62.9688 151.678 62.9688C145.511 62.9688 140.512 67.9676 140.512 74.134C140.512 80.3004 145.511 85.2993 151.678 85.2993Z" fill="#8DE4FF"/>
<path d="M177.464 66.6906C176.97 66.6906 176.497 66.8866 176.148 67.2356C175.799 67.5846 175.603 68.0579 175.603 68.5514C175.603 69.045 175.799 69.5183 176.148 69.8673C176.497 70.2162 176.97 70.4123 177.464 70.4123H265.191C265.684 70.4123 266.158 70.2162 266.507 69.8673C266.856 69.5183 267.052 69.045 267.052 68.5514C267.052 68.0579 266.856 67.5846 266.507 67.2356C266.158 66.8866 265.684 66.6906 265.191 66.6906H177.464Z" fill="#E6E6E6"/>
<path d="M177.464 77.8557C176.97 77.8557 176.497 78.0518 176.148 78.4007C175.799 78.7497 175.603 79.2231 175.603 79.7166C175.603 80.2101 175.799 80.6834 176.148 81.0324C176.497 81.3814 176.97 81.5775 177.464 81.5775H215.213C215.458 81.5779 215.7 81.5301 215.926 81.4368C216.153 81.3435 216.358 81.2065 216.531 81.0336C216.704 80.8608 216.842 80.6555 216.935 80.4295C217.029 80.2035 217.077 79.9612 217.077 79.7166C217.077 79.4719 217.029 79.2297 216.935 79.0037C216.842 78.7777 216.704 78.5724 216.531 78.3995C216.358 78.2267 216.153 78.0897 215.926 77.9964C215.7 77.9031 215.458 77.8553 215.213 77.8557H177.464Z" fill="#E6E6E6"/>
<path d="M212.434 227.516H146.65C145.924 227.515 145.227 227.226 144.713 226.712C144.199 226.198 143.91 225.502 143.909 224.775V156.264C143.91 155.537 144.199 154.841 144.713 154.327C145.227 153.813 145.924 153.524 146.65 153.523H212.434C213.161 153.524 213.857 153.813 214.371 154.327C214.885 154.841 215.174 155.537 215.175 156.264V224.775C215.174 225.502 214.885 226.198 214.371 226.712C213.857 227.226 213.161 227.515 212.434 227.516ZM146.65 154.619C146.214 154.62 145.796 154.793 145.488 155.102C145.18 155.41 145.006 155.828 145.006 156.264V224.775C145.006 225.211 145.18 225.629 145.488 225.937C145.796 226.246 146.214 226.419 146.65 226.419H212.434C212.87 226.419 213.288 226.246 213.596 225.937C213.905 225.629 214.078 225.211 214.078 224.775V156.264C214.078 155.828 213.905 155.41 213.596 155.102C213.288 154.793 212.87 154.62 212.434 154.619H146.65Z" fill="#3F3D56"/>
<path d="M160.668 167.651C160.174 167.651 159.701 167.847 159.352 168.196C159.003 168.545 158.807 169.019 158.807 169.512C158.807 170.006 159.003 170.479 159.352 170.828C159.701 171.177 160.174 171.373 160.668 171.373H198.417C198.91 171.373 199.384 171.177 199.733 170.828C200.082 170.479 200.278 170.006 200.278 169.512C200.278 169.019 200.082 168.545 199.733 168.196C199.384 167.847 198.91 167.651 198.417 167.651H160.668Z" fill="#E6E6E6"/>
<path d="M160.668 178.615C160.423 178.615 160.18 178.662 159.954 178.756C159.728 178.849 159.523 178.986 159.349 179.159C159.176 179.332 159.039 179.537 158.945 179.763C158.851 179.989 158.803 180.231 158.803 180.476C158.803 180.721 158.851 180.963 158.945 181.189C159.039 181.415 159.176 181.62 159.349 181.793C159.523 181.966 159.728 182.103 159.954 182.196C160.18 182.289 160.423 182.337 160.668 182.337H198.417C198.91 182.337 199.384 182.141 199.733 181.792C200.082 181.443 200.278 180.969 200.278 180.476C200.278 179.982 200.082 179.509 199.733 179.16C199.384 178.811 198.91 178.615 198.417 178.615H160.668Z" fill="#E6E6E6"/>
<path d="M179.542 213.388C177.226 213.388 174.961 212.701 173.035 211.414C171.108 210.127 169.607 208.297 168.72 206.157C167.834 204.016 167.602 201.661 168.054 199.389C168.506 197.117 169.621 195.03 171.26 193.392C172.898 191.754 174.985 190.638 177.257 190.186C179.529 189.734 181.884 189.966 184.025 190.853C186.165 191.739 187.994 193.24 189.282 195.167C190.569 197.093 191.256 199.358 191.256 201.674C191.252 204.78 190.017 207.757 187.821 209.953C185.625 212.149 182.648 213.384 179.542 213.388Z" fill="#8DE4FF"/>
<path d="M320.198 0H385.982C386.708 0.000853295 387.405 0.289907 387.919 0.803753C388.433 1.3176 388.722 2.01428 388.723 2.74097V71.2518C388.722 71.9785 388.433 72.6752 387.919 73.189C387.405 73.7029 386.708 73.9919 385.982 73.9928H320.198C319.471 73.9919 318.775 73.7029 318.261 73.189C317.747 72.6752 317.458 71.9785 317.457 71.2518V2.74097C317.458 2.01428 317.747 1.3176 318.261 0.803753C318.775 0.289907 319.471 0.000853295 320.198 0ZM385.982 72.8964C386.418 72.8959 386.836 72.7225 387.144 72.4142C387.452 72.1059 387.626 71.6878 387.626 71.2518V2.74097C387.626 2.30495 387.452 1.88692 387.144 1.5786C386.836 1.27028 386.418 1.09686 385.982 1.09639H320.198C319.762 1.09686 319.344 1.27028 319.036 1.5786C318.727 1.88692 318.554 2.30495 318.553 2.74097V71.2518C318.554 71.6878 318.727 72.1059 319.036 72.4142C319.344 72.7225 319.762 72.8959 320.198 72.8964H385.982Z" fill="#3F3D56"/>
<path d="M371.964 59.8646C372.458 59.8646 372.931 59.6685 373.28 59.3195C373.629 58.9706 373.825 58.4972 373.825 58.0037C373.825 57.5102 373.629 57.0368 373.28 56.6879C372.931 56.3389 372.458 56.1428 371.964 56.1428H334.215C333.722 56.1428 333.248 56.3389 332.899 56.6879C332.55 57.0368 332.354 57.5102 332.354 58.0037C332.354 58.4972 332.55 58.9706 332.899 59.3195C333.248 59.6685 333.722 59.8646 334.215 59.8646H371.964Z" fill="#E6E6E6"/>
<path d="M371.964 48.9007C372.458 48.9007 372.931 48.7047 373.28 48.3557C373.629 48.0067 373.825 47.5334 373.825 47.0398C373.825 46.5463 373.629 46.073 373.28 45.724C372.931 45.375 372.458 45.179 371.964 45.179H334.215C333.722 45.179 333.248 45.375 332.899 45.724C332.55 46.073 332.354 46.5463 332.354 47.0398C332.354 47.5334 332.55 48.0067 332.899 48.3557C333.248 48.7047 333.722 48.9007 334.215 48.9007H371.964Z" fill="#E6E6E6"/>
<path d="M353.09 14.1282C355.406 14.1282 357.671 14.8152 359.597 16.1022C361.524 17.3893 363.025 19.2187 363.911 21.359C364.798 23.4994 365.03 25.8545 364.578 28.1267C364.126 30.3989 363.01 32.486 361.372 34.1241C359.734 35.7623 357.647 36.8779 355.375 37.3298C353.103 37.7818 350.748 37.5498 348.607 36.6633C346.467 35.7767 344.638 34.2754 343.35 32.3491C342.063 30.4229 341.376 28.1582 341.376 25.8415C341.38 22.736 342.615 19.7587 344.811 17.5628C347.007 15.3669 349.984 14.1317 353.09 14.1282Z" fill="#8DE4FF"/>
<path d="M126.784 141.738C138.425 132.722 152.025 126.574 166.484 123.792C181.057 121.015 196.085 121.787 210.297 126.043C217.442 128.17 224.306 131.145 230.744 134.902C237.303 138.737 243.23 143.457 248.933 148.455C254.71 153.519 260.297 158.807 266.328 163.573C283.546 177.336 304.921 184.855 326.963 184.904C328.784 184.907 330.604 184.856 332.422 184.753C333.408 184.699 333.414 183.158 332.422 183.213C309.954 184.45 287.766 177.745 269.742 164.272C263.492 159.598 257.784 154.254 251.958 149.076C246.309 144.055 240.509 139.171 234.1 135.137C218.424 125.261 200.187 120.22 181.664 120.642C163.141 121.064 145.153 126.931 129.943 137.511C128.497 138.517 127.084 139.567 125.695 140.649C124.913 141.257 126.01 142.34 126.784 141.738V141.738Z" fill="#3F3D56"/>
<path d="M125.966 149.184C130.387 149.184 133.971 145.6 133.971 141.179C133.971 136.758 130.387 133.174 125.966 133.174C121.545 133.174 117.961 136.758 117.961 141.179C117.961 145.6 121.545 149.184 125.966 149.184Z" fill="#3F3D56"/>
<path d="M423.77 255.469C428.191 255.469 431.775 251.885 431.775 247.464C431.775 243.043 428.191 239.459 423.77 239.459C419.349 239.459 415.765 243.043 415.765 247.464C415.765 251.885 419.349 255.469 423.77 255.469Z" fill="#3F3D56"/>
<path d="M465.706 201.863H335.088C334.362 201.862 333.665 201.573 333.151 201.06C332.637 200.546 332.348 199.849 332.347 199.122V131.16C332.348 130.433 332.637 129.736 333.151 129.222C333.665 128.709 334.362 128.42 335.088 128.419H465.706C466.433 128.42 467.13 128.709 467.644 129.222C468.157 129.736 468.446 130.433 468.447 131.16V199.122C468.446 199.849 468.157 200.546 467.644 201.06C467.13 201.573 466.433 201.862 465.706 201.863ZM335.088 129.515C334.652 129.516 334.234 129.689 333.926 129.997C333.618 130.306 333.444 130.724 333.444 131.16V199.122C333.444 199.558 333.618 199.976 333.926 200.285C334.234 200.593 334.652 200.766 335.088 200.767H465.706C466.142 200.766 466.56 200.593 466.869 200.285C467.177 199.976 467.35 199.558 467.351 199.122V131.16C467.35 130.724 467.177 130.306 466.869 129.997C466.56 129.689 466.142 129.516 465.706 129.515H335.088Z" fill="#3F3D56"/>
<path d="M356.99 163.66C363.156 163.66 368.155 158.661 368.155 152.494C368.155 146.328 363.156 141.329 356.99 141.329C350.824 141.329 345.825 146.328 345.825 152.494C345.825 158.661 350.824 163.66 356.99 163.66Z" fill="#8DE4FF"/>
<path d="M382.776 145.051C382.532 145.05 382.29 145.098 382.063 145.192C381.837 145.285 381.632 145.422 381.458 145.595C381.285 145.768 381.148 145.973 381.054 146.199C380.96 146.425 380.912 146.667 380.912 146.912C380.912 147.156 380.96 147.399 381.054 147.625C381.148 147.851 381.285 148.056 381.458 148.229C381.632 148.402 381.837 148.539 382.063 148.632C382.29 148.725 382.532 148.773 382.776 148.773H453.109C453.603 148.773 454.076 148.577 454.425 148.228C454.774 147.879 454.97 147.405 454.97 146.912C454.97 146.418 454.774 145.945 454.425 145.596C454.076 145.247 453.603 145.051 453.109 145.051H382.776Z" fill="#E6E6E6"/>
<path d="M382.776 156.216C382.532 156.216 382.29 156.264 382.063 156.357C381.837 156.45 381.632 156.587 381.458 156.76C381.285 156.933 381.148 157.138 381.054 157.364C380.96 157.59 380.912 157.832 380.912 158.077C380.912 158.322 380.96 158.564 381.054 158.79C381.148 159.016 381.285 159.221 381.458 159.394C381.632 159.567 381.837 159.704 382.063 159.797C382.29 159.891 382.532 159.938 382.776 159.938H420.526C421.019 159.938 421.492 159.742 421.841 159.393C422.19 159.044 422.386 158.571 422.386 158.077C422.386 157.584 422.19 157.11 421.841 156.761C421.492 156.412 421.019 156.216 420.526 156.216H382.776Z" fill="#E6E6E6"/>
<path d="M348.426 174.066C347.01 174.066 345.859 174.901 345.859 175.927C345.859 176.953 347.01 177.788 348.426 177.788H452.068C453.483 177.788 454.635 176.953 454.635 175.927C454.635 174.901 453.483 174.066 452.068 174.066H348.426Z" fill="#E6E6E6"/>
<path d="M348.426 185.231C347.01 185.231 345.859 186.066 345.859 187.092C345.859 188.118 347.01 188.953 348.426 188.953H452.068C453.483 188.953 454.635 188.118 454.635 187.092C454.635 186.066 453.483 185.231 452.068 185.231H348.426Z" fill="#E6E6E6"/>
<path d="M324.589 254.917C331.958 251.72 340.185 254.507 347.13 257.453C350.708 258.971 354.246 260.59 357.948 261.788C361.063 262.794 364.252 263.55 367.486 264.049C373.977 265.043 380.578 265.083 387.08 264.169C393.615 263.257 399.983 261.405 405.988 258.67C411.959 255.964 417.479 252.356 422.353 247.971C422.973 247.411 423.581 246.838 424.177 246.252C424.886 245.558 423.797 244.469 423.088 245.163C418.394 249.738 413.006 253.542 407.124 256.433C401.265 259.314 395.016 261.321 388.576 262.391C382.114 263.481 375.526 263.595 369.031 262.729C365.79 262.291 362.59 261.595 359.461 260.648C355.866 259.479 352.34 258.11 348.898 256.546C341.888 253.536 334.099 250.587 326.396 252.664C325.513 252.908 324.649 253.216 323.811 253.587C322.904 253.98 323.688 255.307 324.589 254.917V254.917Z" fill="#3F3D56"/>
<path d="M321.742 273.809H260.031L274.554 248.655C274.814 248.204 275.188 247.829 275.639 247.569C276.09 247.309 276.601 247.172 277.122 247.172C277.642 247.172 278.154 247.309 278.605 247.569C279.056 247.829 279.43 248.204 279.69 248.655L285.894 259.4L296.443 241.129C296.769 240.565 297.237 240.096 297.802 239.77C298.366 239.444 299.007 239.273 299.658 239.273C300.31 239.273 300.95 239.444 301.515 239.77C302.079 240.096 302.548 240.565 302.874 241.129L321.742 273.809Z" fill="#8DE4FF"/>
<path d="M321.8 273.802H256.016C255.29 273.801 254.593 273.512 254.079 272.998C253.565 272.485 253.276 271.788 253.275 271.061V234.346C253.276 233.619 253.565 232.922 254.079 232.408C254.593 231.895 255.29 231.605 256.016 231.605H321.8C322.526 231.605 323.223 231.895 323.737 232.408C324.251 232.922 324.54 233.619 324.541 234.346V271.061C324.54 271.788 324.251 272.485 323.737 272.998C323.223 273.512 322.526 273.801 321.8 273.802ZM256.016 232.701C255.58 232.701 255.162 232.875 254.854 233.183C254.546 233.492 254.372 233.91 254.372 234.346V271.061C254.372 271.497 254.546 271.915 254.854 272.224C255.162 272.532 255.58 272.705 256.016 272.706H321.8C322.236 272.705 322.654 272.532 322.962 272.224C323.27 271.915 323.444 271.497 323.444 271.061V234.346C323.444 233.91 323.27 233.492 322.962 233.183C322.654 232.875 322.236 232.701 321.8 232.701H256.016Z" fill="#3F3D56"/>
<path d="M450.826 241.489L439.1 247.443C434.915 249.568 430.876 249.205 429.329 244.773C428.961 243.719 428.825 242.597 428.93 241.485C429.036 240.373 429.381 239.297 429.941 238.331C430.501 237.364 431.263 236.53 432.175 235.886C433.088 235.241 434.128 234.801 435.226 234.596L446.371 232.516L494.099 216.681L523.011 196.18L533.61 213.065L500.203 231.092L450.826 241.489Z" fill="#FFB8B8"/>
<path d="M505.562 439.13L496.59 437.635L497.587 420.689H507.058L505.562 439.13Z" fill="#FFB8B8"/>
<path d="M592.634 422.579L583.952 425.288L577.204 409.712L585.657 405.444L592.634 422.579Z" fill="#FFB8B8"/>
<path d="M587.799 407.731L576.834 412.216L524.501 343.436L508.054 424.178L497.089 422.184C490.055 352.574 484.32 281.573 491.357 247.991L531.977 246.247L550.418 305.059L559.39 344.931L587.799 407.731Z" fill="#2F2E41"/>
<path d="M505.068 452.835C503.428 453.187 501.718 453.005 500.188 452.316L494.859 449.918C490.39 449.689 487.348 450.579 484.86 447.332C484.158 446.404 483.717 445.305 483.583 444.149C483.449 442.993 483.627 441.822 484.098 440.758C484.565 439.691 485.308 438.767 486.251 438.081C487.193 437.395 488.301 436.973 489.46 436.857L496.78 432.244L497.164 435.702C500.51 437.598 504.482 436.779 508.691 434.934L510.988 442.975C511.284 444.012 511.364 445.098 511.223 446.167C511.082 447.237 510.723 448.265 510.168 449.19C509.613 450.114 508.874 450.915 507.997 451.542C507.119 452.169 506.123 452.609 505.068 452.835Z" fill="#2F2E41"/>
<path d="M596.186 436.341C594.749 437.206 593.073 437.589 591.403 437.435L585.583 436.897C581.282 438.131 578.693 439.961 575.286 437.698C574.321 437.048 573.547 436.152 573.045 435.102C572.543 434.052 572.331 432.887 572.431 431.728C572.526 430.566 572.929 429.451 573.597 428.497C574.266 427.542 575.177 426.783 576.236 426.297L581.661 419.557L583.147 422.703C586.927 423.409 590.418 421.345 593.8 418.233L598.584 425.092C599.2 425.977 599.629 426.979 599.843 428.036C600.057 429.093 600.051 430.182 599.826 431.237C599.601 432.291 599.162 433.289 598.536 434.167C597.91 435.045 597.11 435.785 596.186 436.341Z" fill="#2F2E41"/>
<path d="M517.025 175.474C526.935 175.474 534.968 167.44 534.968 157.531C534.968 147.621 526.935 139.588 517.025 139.588C507.116 139.588 499.083 147.621 499.083 157.531C499.083 167.44 507.116 175.474 517.025 175.474Z" fill="#FFB8B8"/>
<path d="M538.955 195.41L515.53 190.426L512.54 170.988L528.987 167.499L538.955 195.41Z" fill="#FFB8B8"/>
<path d="M532.476 248.739H490.61L500.047 225.047C499.361 216.895 502.816 210.899 507.761 205.678L514.035 189.927C524.172 183.256 531.814 183.754 539.952 192.419C549.601 206.081 542.922 226.617 532.476 248.739Z" fill="#8DE4FF"/>
<path d="M513.536 299.078L512.346 312.175C511.921 316.85 509.466 320.078 504.89 319.032C503.801 318.783 502.779 318.302 501.893 317.621C501.008 316.94 500.28 316.076 499.759 315.088C499.238 314.1 498.937 313.011 498.876 311.896C498.815 310.781 498.996 309.665 499.406 308.626L503.568 298.081L515.53 249.238L513.536 213.851H533.473L530.981 251.73L513.536 299.078Z" fill="#FFB8B8"/>
<path d="M534.968 214.848H512.041L513.649 199.892C513.754 197.305 514.823 194.851 516.645 193.012C518.467 191.173 520.911 190.082 523.497 189.953C524.867 189.884 526.237 190.088 527.528 190.553C528.819 191.017 530.005 191.733 531.017 192.659C532.029 193.585 532.848 194.702 533.426 195.947C534.003 197.191 534.328 198.537 534.382 199.908L534.968 214.848Z" fill="#8DE4FF"/>
<path d="M539.232 139.082C542.957 139.082 545.976 136.062 545.976 132.338C545.976 128.613 542.957 125.594 539.232 125.594C535.507 125.594 532.488 128.613 532.488 132.338C532.488 136.062 535.507 139.082 539.232 139.082Z" fill="#2F2E41"/>
<path d="M532.283 130.687C532.393 128.976 533.152 127.371 534.405 126.2C535.657 125.029 537.309 124.379 539.024 124.383C538.884 124.366 538.746 124.344 538.604 124.335C536.82 124.221 535.063 124.821 533.721 126.002C532.379 127.183 531.56 128.849 531.445 130.633C531.331 132.417 531.929 134.174 533.109 135.517C534.289 136.86 535.955 137.68 537.739 137.796C537.881 137.805 538.02 137.801 538.161 137.801C536.46 137.586 534.905 136.73 533.813 135.408C532.721 134.086 532.173 132.398 532.283 130.687Z" fill="#2F2E41"/>
<path d="M532.245 133.567C526.23 128.577 508.978 134.919 507.865 138.273C499.731 139.382 493.573 144.127 493.573 152.565V152.565C498.409 154.546 503.909 154.302 509.854 152.565C519.331 160.288 519.98 169.997 514.217 181.148L521.307 181.29L530.096 168.444L530.517 181.474L546.77 181.148V162.476C546.823 156.267 545.394 150.136 542.602 144.591C540.069 139.67 536.138 136.797 532.245 133.567Z" fill="#2F2E41"/>
<path d="M517.109 166.557C518.891 166.557 520.335 164.535 520.335 162.041C520.335 159.548 518.891 157.526 517.109 157.526C515.328 157.526 513.884 159.548 513.884 162.041C513.884 164.535 515.328 166.557 517.109 166.557Z" fill="#FFB8B8"/>
<path d="M111.321 167.771C111.321 167.771 113.263 134.169 123.341 141.804C133.42 149.439 118.94 170.887 118.94 170.887L111.321 167.771Z" fill="#FFB9B9"/>
<path d="M73.8246 267.444C73.8246 267.444 96.2124 292.577 83.6868 294.305C71.1612 296.032 66.234 270.628 66.234 270.628L73.8246 267.444Z" fill="#FFB9B9"/>
<path d="M44.6104 148.475C47.4203 149.215 49.9491 150.768 51.8792 152.94C53.8093 155.112 55.0547 157.805 55.4589 160.683L62.5802 211.37L72.5635 251.802C72.5635 251.802 77.555 256.294 75.5584 258.79C73.5618 261.286 78.0542 271.768 78.0542 271.768L65.5752 275.762C65.5752 275.762 64.0777 265.279 61.5819 264.78C59.3885 264.341 34.8351 198.75 28.9167 182.86C28.1007 180.669 27.6389 179.423 27.6389 179.423C27.6389 179.423 28.6373 145.98 44.6104 148.475Z" fill="#575A89"/>
<path d="M46.8898 412.802L54.5547 426.386C60.4905 439.058 55.2157 441.36 40.662 435.079L37.3445 419.04L46.8898 412.802Z" fill="#FFB9B9"/>
<path d="M50.7572 430.855C50.7572 430.855 54.3958 424.931 55.7119 425.923C57.028 426.915 62.4562 431.211 62.4562 431.211L69.5268 437.983C69.5268 437.983 93.4152 440.509 78.236 448.879C63.0568 457.249 54.6683 450.309 54.6683 450.309C54.6683 450.309 33.4083 451.415 33.7512 445.483C34.0941 439.552 40.9506 430.168 40.9506 430.168C40.9506 430.168 49.5922 435.961 50.7572 430.855Z" fill="#2F2E41"/>
<path d="M12.8765 259.263L20.0625 346.213C20.0625 346.213 20.302 398.191 27.9669 408.251C35.6319 418.312 35.8714 423.342 35.8714 423.342L51.6804 415.198C51.6804 415.198 43.5364 401.627 45.2131 399.55C46.2467 398.232 46.9822 396.706 47.3689 395.077L43.0573 341.422L51.2014 248.005L12.8765 259.263Z" fill="#2F2E41"/>
<path d="M32.5177 412.803L25.8109 430.528L10.6007 424.169L18.6251 410.886L32.5177 412.803Z" fill="#FFB9B9"/>
<path d="M21.3289 424.557C21.3289 424.557 27.0336 420.992 27.7466 422.418C28.4597 423.844 31.312 429.906 31.312 429.906L34.5209 438.819C34.5209 438.819 54.1305 451.298 37.3732 452.011C20.6159 452.724 16.3374 443.098 16.3374 443.098C16.3374 443.098 -2.5591 434.897 0.293226 429.906C3.14555 424.914 13.1286 419.737 13.1286 419.737C13.1286 419.737 18.1201 428.479 21.3289 424.557Z" fill="#2F2E41"/>
<path d="M73.7172 259.503L77.5497 339.506C77.5497 339.506 42.5783 411.844 38.7458 413.761C37.6038 414.35 36.5915 415.163 35.7687 416.15C34.9459 417.138 34.3292 418.28 33.9552 419.509L12.8765 414.24L22.4577 398.91L43.5364 347.65C43.5364 347.65 46.8898 346.213 47.8479 341.422C48.8061 336.632 50.7223 336.632 45.9317 335.674C41.1411 334.716 41.1411 329.925 41.1411 329.925L25.3321 257.108L73.7172 259.503Z" fill="#2F2E41"/>
<path d="M75.386 117.896C77.0812 107.45 69.987 97.607 59.5405 95.9117C49.094 94.2165 39.2513 101.311 37.556 111.757C35.8608 122.204 42.9551 132.046 53.4015 133.742C63.848 135.437 73.6908 128.343 75.386 117.896Z" fill="#FFB9B9"/>
<path d="M39.4644 116.024C39.4644 116.024 38.0272 140.457 36.111 142.852C34.1947 145.247 56.2315 144.768 56.2315 144.768C56.2315 144.768 54.7943 124.168 56.2315 122.252C57.6687 120.336 39.4644 116.024 39.4644 116.024Z" fill="#FFB9B9"/>
<path d="M75.1526 264.773C75.1526 264.773 21.0187 259.984 10.961 264.773C10.961 264.773 14.6635 251.038 13.7068 249.603C13.011 248.553 14.9306 209.428 14.328 186.859C13.9863 174.123 11.0479 161.686 19.5898 152.231C22.4972 149.019 25.74 146.323 29.163 145.006C29.163 145.006 28.2063 135.905 32.996 135.427C32.996 135.427 51.2042 133.507 57.9073 139.26C60.0506 141.086 61.3986 146.653 61.5415 151.448C58.2242 167.762 59.3983 185.865 62.4423 204.644C62.6287 205.837 62.8337 207.036 63.0387 208.235C66.2691 226.86 71.1519 246.062 75.1526 264.773Z" fill="#575A89"/>
<path d="M46.4603 120.473C48.0808 120.376 49.6632 120.924 51.2725 121.138C57.0302 121.902 63.02 117.724 64.2913 112.057C64.3932 111.302 64.6182 110.569 64.9572 109.887C65.8433 108.44 67.8615 108.165 69.5251 108.497C71.1888 108.83 72.7658 109.609 74.46 109.697C77.076 109.835 79.5875 108.224 80.9816 106.006C82.2991 103.718 82.8594 101.073 82.5823 98.4469L81.3282 99.7631C80.8186 98.6851 80.6219 97.4856 80.7604 96.3012C80.0958 96.1242 79.3969 96.1208 78.7307 96.2913C78.0644 96.4618 77.4531 96.8004 76.9552 97.2749C75.8494 97.3926 76.684 95.2238 75.8624 94.4743C75.4629 94.2288 74.9867 94.1397 74.5254 94.2242C72.1729 94.2468 70.2699 92.4475 68.4161 90.999C65.2042 88.4949 61.4481 86.7816 57.4515 85.9977C54.7952 85.4796 51.9704 85.3963 49.4512 86.3855C47.4176 87.2984 45.5822 88.6003 44.0484 90.2179C40.1044 94.0104 36.6118 98.4665 34.971 103.686C33.6371 107.962 33.5993 112.537 34.8624 116.833C35.5236 119.065 37.5162 126.707 40.4332 126.885C44.0986 127.109 41.8979 120.745 46.4603 120.473Z" fill="#2F2E41"/>
<path d="M54.392 150.827L61.2573 151.563C61.2573 151.563 67.9965 164.637 67.5071 167.365C67.0177 170.092 65.9519 168.436 68.9851 172.799C72.0183 177.163 80.6255 188.441 81.6913 190.096C82.7571 191.752 111.814 169.582 110.007 162.94C110.007 162.94 119.184 169.524 123.116 170.4C123.116 170.4 93.1707 209.673 88.9977 214.699C84.8247 219.725 81.4662 218.693 75.7314 215.713C69.9966 212.733 40.9844 183.008 40.9844 183.008L54.392 150.827Z" fill="#575A89"/>
<path opacity="0.1" d="M63.0387 208.235L39.1772 184.374L45.2156 182.404L62.4423 204.644C62.6287 205.837 62.8337 207.036 63.0387 208.235Z" fill="black"/>
</g>
<defs>
<clipPath id="clip0">
<rect width="600" height="453.01" fill="white"/>
</clipPath>
</defs>
</svg>
